<svg xmlns="http://www.w3.org/2000/svg" xmlns:xlink="http://www.w3.org/1999/xlink" width="48" zoomAndPan="magnify" viewBox="0 0 36 36.000001" height="48" preserveAspectRatio="xMidYMid meet" version="1.0"><defs><g/><clipPath id="c7b551c9c1"><path d="M 0.488281 0 L 35.511719 0 L 35.511719 35.027344 L 0.488281 35.027344 Z M 0.488281 0 " clip-rule="nonzero"/></clipPath><clipPath id="be77be2744"><path d="M 4.136719 0 L 31.863281 0 C 32.832031 0 33.761719 0.382812 34.445312 1.070312 C 35.128906 1.753906 35.511719 2.679688 35.511719 3.648438 L 35.511719 31.378906 C 35.511719 32.347656 35.128906 33.273438 34.445312 33.957031 C 33.761719 34.644531 32.832031 35.027344 31.863281 35.027344 L 4.136719 35.027344 C 3.167969 35.027344 2.238281 34.644531 1.554688 33.957031 C 0.871094 33.273438 0.488281 32.347656 0.488281 31.378906 L 0.488281 3.648438 C 0.488281 2.679688 0.871094 1.753906 1.554688 1.070312 C 2.238281 0.382812 3.167969 0 4.136719 0 Z M 4.136719 0 " clip-rule="nonzero"/></clipPath></defs><g clip-path="url(#c7b551c9c1)"><g clip-path="url(#be77be2744)"><path fill="#14181f" d="M 0.488281 0 L 35.511719 0 L 35.511719 35.027344 L 0.488281 35.027344 Z M 0.488281 0 " fill-opacity="1" fill-rule="nonzero"/></g></g><g fill="#d16c86" fill-opacity="1"><g transform="translate(5.44456, 31.253054)"><g><path d="M 7.96875 -16.46875 L 7.96875 0 L 1.921875 0 L 1.921875 -26.53125 L 7.96875 -26.53125 L 18.515625 -10.0625 L 18.59375 -10.0625 L 18.59375 -26.53125 L 24.625 -26.53125 L 24.625 0 L 18.59375 0 L 8.03125 -16.46875 Z M 7.96875 -16.46875 "/></g></g></g></svg>