<svg xmlns="http://www.w3.org/2000/svg" xmlns:xlink="http://www.w3.org/1999/xlink" width="128" zoomAndPan="magnify" viewBox="0 0 96 36.000001" height="48" preserveAspectRatio="xMidYMid meet" version="1.0"><defs><g/></defs><g fill="#ffffff" fill-opacity="1"><g transform="translate(11.20767, 32.422345)"><g><path d="M 10.28125 -21.234375 L 10.28125 0 L 2.484375 0 L 2.484375 -34.21875 L 10.28125 -34.21875 L 23.890625 -12.984375 L 23.984375 -12.984375 L 23.984375 -34.21875 L 31.78125 -34.21875 L 31.78125 0 L 23.984375 0 L 10.375 -21.234375 Z M 10.28125 -21.234375 "/></g></g></g><g fill="#ffffff" fill-opacity="1"><g transform="translate(45.456523, 32.422345)"><g><path d="M 3.1875 -33.140625 C 4.050781 -34.003906 5.078125 -34.4375 6.265625 -34.4375 C 7.453125 -34.4375 8.472656 -34.003906 9.328125 -33.140625 C 10.191406 -32.285156 10.625 -31.265625 10.625 -30.078125 C 10.625 -28.890625 10.191406 -27.863281 9.328125 -27 C 8.472656 -26.144531 7.453125 -25.71875 6.265625 -25.71875 C 5.078125 -25.71875 4.050781 -26.144531 3.1875 -27 C 2.332031 -27.863281 1.90625 -28.890625 1.90625 -30.078125 C 1.90625 -31.265625 2.332031 -32.285156 3.1875 -33.140625 Z M 2.484375 -21.28125 L 2.484375 0 L 9.828125 0 L 9.828125 -21.28125 Z M 2.484375 -21.28125 "/></g></g></g><g fill="#ffffff" fill-opacity="1"><g transform="translate(57.978516, 32.422345)"><g><path d="M 3.9375 -2.625 C 1.945312 -4.800781 0.953125 -7.460938 0.953125 -10.609375 C 0.953125 -13.765625 1.945312 -16.4375 3.9375 -18.625 C 5.925781 -20.8125 8.457031 -21.90625 11.53125 -21.90625 C 14.351562 -21.90625 16.675781 -21.019531 18.5 -19.25 L 18.5 -21.28125 L 25.84375 -21.28125 L 25.84375 0 L 18.578125 0 L 18.578125 -2.40625 L 18.5 -2.40625 C 16.675781 -0.382812 14.351562 0.625 11.53125 0.625 C 8.457031 0.625 5.925781 -0.457031 3.9375 -2.625 Z M 10.171875 -14.21875 C 9.222656 -13.28125 8.75 -12.078125 8.75 -10.609375 C 8.75 -9.148438 9.203125 -7.957031 10.109375 -7.03125 C 11.023438 -6.101562 12.234375 -5.640625 13.734375 -5.640625 C 15.171875 -5.640625 16.351562 -6.109375 17.28125 -7.046875 C 18.207031 -7.992188 18.671875 -9.1875 18.671875 -10.625 C 18.671875 -12.082031 18.191406 -13.28125 17.234375 -14.21875 C 16.285156 -15.164062 15.117188 -15.640625 13.734375 -15.640625 C 12.316406 -15.640625 11.128906 -15.164062 10.171875 -14.21875 Z M 10.171875 -14.21875 "/></g></g></g></svg>